/* XPM */
static char *_f2e4d58522546bebdd70d82d1fcafdeAAu1vanGDegEF9qA[] = {
/* columns rows colors chars-per-pixel */
"32 24 18 1 ",
"  c #39322B",
". c #3A332C",
"X c #3B332C",
"o c #3C342D",
"O c #413830",
"+ c #423A31",
"@ c #443B32",
"# c #443B33",
"$ c #453C33",
"% c #453C34",
"& c #473D35",
"* c #473E35",
"= c #483F36",
"- c #493F36",
"; c #494037",
": c #4B4138",
"> c #4D4239",
", c #4E433A",
/* pixels */
"-*- >-+---*-.:-%+%%%**-*-%:.-:%#",
";+**.**---*.%***->+-:-******o**%",
":;*** :*%+.--*%>-**%*#:--*-*-.--",
";-@>-*-*%--+::----*%**:**--*>-:*",
"-+---:%+%--*---+-*:%-#*%%*+*****",
"+--*-**--*%%*-----%*:*>.%-***--*",
">%%-*>*%+-**->-->#-***-*%-*==---",
"@-*>%.%%*-.+-%%-:***:+*-%%-*#.:=",
"----.--*+*-.>%---%=->#*O-%--oO-%",
"+*-.:-%+>*--.%%--%=-*-**---.-O:%",
"--.-*-%:**>:%.%--=------*-.--**-",
"* *--**::-----.-=--%-*-*-.*%*-%*",
".%*:**-*-%->%%*.*==-%%*-.%-*-*+*",
">--*-%-%-*+--%**.-----+.-*-%-*:-",
"---***#%:%%*-:--%.=---.*%%+%***%",
"--%:**-%*%---**:#%-=%+>*---%%-*-",
"#*:*--*-%*-:---**-*-:-#%*-#===.-",
">*-:---:-*%%-*%+==*%+>%-%*==%:*:",
"-*--+%*--:->*%----%*-------:**-*",
"-#*-*>*:**%%%-%*%.%%--.--*=-**-%",
":-**:***+-%-*%*-.>-%-*-.:#*-%-*%",
".:%*--*+->-::-*.%%---+-*.-*%::*-",
"%.-%--:*+-%--%.%-%*%*-+-O.%*-*=+",
"+-.:-@*@%--*-o--#--%%-*+--.%=-#="
};
