/* XPM */
static char *_536336f58fd49f1c8d573ec9034b8fb0X7IlJS6sZQiquGK[] = {
/* columns rows colors chars-per-pixel */
"32 32 13 1 ",
"  c black",
". c #0C0E19",
"X c #21110D",
"o c #402717",
"O c #503625",
"+ c #573A23",
"@ c #755338",
"# c #AC7B5D",
"$ c #1D438A",
"% c #2C65B5",
"& c #787E97",
"* c #A4A8B5",
"= c #C1AC8F",
/* pixels */
"@@@@@@@@@@@@O@@@@@@@@@@@@@@@O@@@",
"@@@@@@@@@@@@O@@@@@@@@@@@@@@@O@@@",
"OOOO@OO@@@@OOOOOOOOO@OO@@@@OOOOO",
"@@@@@@@@@@@@@@@@@@@@@@@@@@@@@@@@",
"@@@@@@@@@@@@@@@@@@@@@@@@@@@@@@@@",
"@@@@@@@@@@@    @  @@@@@@@@@@@@@@",
"@@@@@O@@@@@ ++o +   @O@@@@@@@@@@",
"OOOOOOOO@OO  ++o+++o OOO@OO@@@@O",
"@O@@@@@@@@ o++++++++ @@@@@@@@@@@",
"@@@@@@@@@ o++++o++++o @@@@@@@@@@",
"@@@@@@@@@ +++oooo++++ @@@@@@@@@@",
"@@@@@@@@@ +++o####o++ @@@@@@@@@@",
"OOO@@@OOO ++o######o+ OOOOOOOOOO",
"@@@@@@@@@ o+#X===X#o @@@@@@@O@@@",
"@@@@@@@@@@ +=X===X== @@@@@@@@@@@",
"@@@@@@@@@@ #=======# @@@@@@@@@@@",
"@@@@@@@@@@@ #=====# @@@@@@@@O@@@",
"@@@@@@@@@@@ o#####o @@@@@@@@O@@@",
"OOOO@OO@@@@ o+&&&+o @OO@@@@OOOOO",
"@@@@@@@@@@@ ++&**++ @@@@@@@@@@@@",
"@@@@@@@@@@ ==+%%%+== @@@@@@@@@@@",
"@@@@@@@@@@ ==%%$%%== @@@@@@@@@@@",
"@@@@@O@@@@. %%$ $%% .O@@@@@@@@@@",
"OOOOOOOO@.. o+ . +o ..OO@OO@@@@O",
"@O@@@@@@@.............@@@@@@@@@@",
"@@@@@@@@@@...........@@@@@@@@@@@",
"@@@@@@@@@@@@@@@@@@@@@@@@@@@@@@@@",
"@@@@@@@@@@@@@@@@@@@@@@@@@@@@@@@@",
"OOO@@@OOOOOOOOOOOOO@@@OOOOOOOOOO",
"@@@@@@@@@@@@O@@@@@@@@@@@@@@@O@@@",
"@@@@@@@@@@@@@@@@@@@@@@@@@@@@@@@@",
"@@@@@@@@@@@@@@@@@@@@@@@@@@@@@@@@"
};
