/* XPM */
static char *c293a7314af94243e820435c8fe001c12Z4ELUfBMjDA1zed[] = {
/* columns rows colors chars-per-pixel */
"32 32 4 1 ",
"  c #242A3D",
". c #414B66",
"X c #677598",
"o c #8F9AB0",
/* pixels */
"XXXXXoXXX .XX XXXXXXXoXXX .XX XX",
"XXooX.oo.XXX..XXooooX.oo.XXXXX..",
"XoXXo ..ooXXX.XoXXXXo ..ooooooX.",
".XXXX   XXXX  .XXXXXX   XXXXXX  ",
"XXX..X XXX... XXXX...X XXXXX... ",
"X..... XX.... X....... XXX..... ",
".X.... ..X... .X...... ....X... ",
" ....   ....   ......   ......  ",
"  XXX.           XXXX.          ",
" XX..X .XXXXX   XXX..X .XXXXXXX ",
"X..X...XXXXXXX X...X...XXXXXXXXX",
"......XXX....X .......XXX......X",
"..... X....... ...... X.........",
"       ......          ........ ",
"XX  .XXXX.  XXXXXX  .XXXX.  XXXX",
".XX XXX..X XXX...XX XXX..X XXX..",
"X.. X..... X....X.. X..... X....",
"...  ....  ........  ....  .....",
"..          ......          ....",
".XXXX   XXXX  .XXXXXX   XXXXXX  ",
"XXX..X XXX... XXXX...X XXXXX... ",
"X..... XX.... X....... XXX..... ",
".X.... ..X... .X...... ....X... ",
" ....   ....   ......   ......  ",
"  XXX.           XXXX.          ",
" XX..X .XXXXX   XXX..X .XXXXXXX ",
"X..X...XXXXXXX X.......XXXXXXXXX",
"......XXX....X .......XXX......X",
"..... X....... ...... X.........",
"       ......          ........ ",
"XX  .XXXX.  XXXXXX  .XXXX.  XXXX",
".XX XXX..X XXX...XX XXX..X XXX.."
};
